<?xml version="1.0" standalone="no"?>
<!DOCTYPE svg PUBLIC "-//W3C//DTD SVG 20010904//EN"
 "http://www.w3.org/TR/2001/REC-SVG-20010904/DTD/svg10.dtd">
<svg version="1.0" xmlns="http://www.w3.org/2000/svg"
 width="800.000000pt" height="800.000000pt" viewBox="0 0 800.000000 800.000000"
 preserveAspectRatio="xMidYMid meet">

<g transform="translate(0.000000,800.000000) scale(0.100000,-0.100000)"
fill="#000000" stroke="none">
<path d="M3270 7034 c-140 -17 -316 -65 -438 -119 -42 -18 -108 -41 -147 -50
-127 -29 -205 -75 -329 -194 -94 -90 -128 -115 -212 -159 -227 -116 -325 -228
-444 -505 -66 -156 -123 -329 -149 -452 -50 -247 -71 -544 -52 -735 15 -141
48 -311 65 -328 10 -10 25 -6 82 20 62 30 78 33 159 33 81 0 97 -3 158 -32
115 -55 215 -166 258 -287 10 -31 33 -138 50 -239 38 -225 36 -319 -14 -587
-20 -102 -51 -268 -71 -370 -19 -102 -40 -241 -46 -310 -24 -255 24 -531 118
-676 106 -164 266 -259 729 -432 288 -108 373 -162 593 -377 165 -161 225
-207 359 -275 225 -113 673 -206 1046 -217 209 -6 285 6 402 61 95 45 169 116
253 241 135 201 162 285 163 505 0 81 -7 196 -16 260 -39 282 -34 371 34 607
40 138 69 287 69 354 0 29 -32 84 -190 322 -160 241 -197 290 -229 306 -60 31
-334 76 -551 90 -128 9 -181 27 -243 80 -53 47 -90 54 -208 41 -157 -17 -300
-63 -474 -153 -60 -31 -103 -64 -172 -132 -50 -50 -97 -103 -102 -118 -17 -45
-13 -97 14 -161 13 -33 22 -62 20 -64 -8 -8 -115 67 -159 112 -23 23 -62 80
-87 126 -57 109 -180 236 -289 298 -77 44 -265 133 -378 179 -91 37 -151 96
-205 201 -122 235 -174 511 -132 691 50 210 298 530 556 717 45 32 95 70 111
84 l30 26 -76 98 c-104 133 -122 161 -142 230 -32 113 -1 240 80 333 48 55
284 224 368 263 93 44 209 63 333 56 130 -7 252 -30 668 -123 321 -72 348 -77
442 -74 234 7 247 6 300 -19 58 -28 170 -136 237 -230 133 -187 206 -364 294
-715 42 -167 56 -206 68 -194 7 7 -60 437 -84 537 -46 194 -109 335 -204 457
-120 155 -170 229 -224 337 -54 106 -62 117 -152 196 -281 248 -590 382 -878
382 -154 0 -274 13 -472 52 -119 23 -189 30 -305 33 -82 2 -166 1 -185 -1z
m1596 -4069 c93 -16 366 -88 422 -111 29 -12 32 -17 32 -56 0 -43 -14 -115
-23 -125 -3 -2 -38 7 -79 20 -85 29 -512 123 -738 162 -210 36 -309 79 -263
112 26 20 532 18 649 -2z"/>
<path d="M3857 5294 c-284 -51 -543 -219 -643 -416 -31 -62 -31 -95 0 -110 22
-9 37 -4 123 45 231 132 371 175 599 184 236 9 399 -25 611 -127 113 -55 178
-65 222 -34 20 14 22 23 18 56 -15 110 -107 220 -239 285 -238 117 -472 157
-691 117z"/>
<path d="M5490 4920 c-25 -4 -61 -14 -81 -23 -88 -36 -169 -147 -169 -231 l0
-38 93 8 c156 15 285 11 351 -10 109 -36 225 -126 267 -209 l22 -42 33 39 c67
78 83 199 39 294 -35 75 -127 164 -192 186 -90 30 -266 42 -363 26z"/>
</g>
</svg>
